<?xml version="1.0" encoding="utf-8"?>
<!-- Generator: Adobe Illustrator 25.2.0, SVG Export Plug-In . SVG Version: 6.00 Build 0)  -->
<svg version="1.1" id="Layer_1" xmlns="http://www.w3.org/2000/svg" xmlns:xlink="http://www.w3.org/1999/xlink" x="0px" y="0px"
	 viewBox="0 0 923 911.7" style="enable-background:new 0 0 923 911.7;" xml:space="preserve">
<style type="text/css">
	.st0{fill:transparent;}
	.st1{fill:#1D1D1B;}
</style>
<g>
	<path class="st0" d="M587.5,0c208.3,56,311,206.1,319.9,333.2c24.3,347.6-77.4,568.1-508.3,551.5c-259.4-10-530-300.3-309.1-695.5
		c172-307.7,757-178,780.9,165.5c16.9,242-64.6,435.3-295.7,478C221.4,897.9-34.5,659.4,103.4,294.9
		C227.5-32.9,745.3,48.3,792,285.7c54,274.4-18.4,409.8-218.3,481C320.3,857.1,85.6,660,152,369C180,245.9,311.3,113.7,540.3,161.3
		c126.6,26.4,191.5,95,194.6,296.4c1.5,96.7-114.1,275-324.8,230.6c-97.5-20.6-242-174.6-132.5-346.2c83.5-130.7,297.2-98,340.1,8.4
		c37.7,93.5,22.7,219.5-81.5,244c-90.1,21.2-192.7,1.9-191.2-123.7c0.9-72.4,54.9-162.1,160.1-107c53,27.8,80.6,97.8,24.8,146.3
		c-52.9,46-105.5,23.3-122-26.8c-15.5-47.2,66.5-125.1,93.8-37.1c19.2,61.6-56.6,38.1-56.6,38.1"/>
	<path class="st1" d="M588.3-3c53.6,14.4,105.4,36.4,151.8,67.2c11.6,7.7,22.8,15.9,33.6,24.7c10.8,8.8,21.2,18,31.1,27.8
		c19.8,19.6,37.6,41.2,52.8,64.6c15.2,23.4,27.7,48.5,36.9,74.8c4.6,13.2,8.3,26.7,11.1,40.3c2.8,13.7,4.6,27.6,5.4,41.5
		c3.7,55.2,4.7,110.8,0,166.1c-2.4,27.6-6.2,55.2-12.1,82.4c-5.9,27.2-13.8,54-24.5,79.8c-5.4,12.9-11.4,25.5-18.1,37.7
		c-6.8,12.2-14.3,24-22.6,35.3c-16.5,22.6-36.1,42.9-58,60.3c-21.9,17.4-46.1,31.8-71.5,43.4c-25.4,11.6-51.9,20.5-78.9,27.3
		c-27,6.8-54.5,11.5-82.1,14.6c-27.6,3.2-55.4,4.7-83.1,5.2c-13.9,0.2-27.7,0.2-41.6-0.1c-6.9-0.2-13.8-0.3-20.8-0.6
		c-7-0.3-14-0.8-20.9-1.5c-27.9-2.7-55.4-8.5-82-17c-53.3-17.1-103-44.8-145.6-81c-42.6-36.2-78.1-80.9-103-131
		c-12.5-25-22.4-51.4-29.4-78.5c-7.1-27.1-11.4-54.9-13-82.8c-0.8-14-0.9-28-0.5-41.9c0.5-14,1.6-27.9,3.3-41.8
		c1.7-13.9,4-27.6,6.8-41.3c2.8-13.7,6.2-27.2,10-40.6c7.6-26.8,17.2-53.1,28.3-78.6c5.5-12.8,11.5-25.4,17.7-37.8
		c3.1-6.2,6.4-12.4,9.6-18.5c1.6-3.1,3.3-6.1,5-9.2c1.7-3,3.5-6.1,5.2-9.1c7.2-12.1,15.1-23.7,23.8-34.8c8.7-11,18.1-21.6,28.2-31.3
		c20.1-19.7,42.9-36.5,67.3-50.4c24.4-13.9,50.4-24.9,77.2-33.1c13.4-4.1,27-7.5,40.7-10.3c13.7-2.7,27.6-5,41.5-6.5
		c55.6-6.1,112.1-2.7,166.7,8.8c27.3,5.7,54.2,13.6,80.4,23.4c13.1,4.9,26,10.4,38.6,16.3c12.6,6,25.1,12.5,37.2,19.5
		c12.1,7,23.9,14.5,35.4,22.7c5.7,4,11.3,8.3,16.9,12.5c5.5,4.4,11,8.8,16.2,13.4c10.6,9.2,20.7,18.9,30.3,29.2
		c9.5,10.3,18.6,21.1,26.9,32.5c8.3,11.3,15.9,23.2,22.8,35.5c6.8,12.4,12.9,25.1,18,38.3c10.3,26.3,16.8,54,19.5,82.1
		c0.6,7.1,1.1,14,1.6,20.9l0.6,10.4l0.5,10.4c0.5,13.9,0.7,27.8,0.5,41.8c-0.4,27.9-2.2,55.8-6,83.5c-3.8,27.7-9.5,55.3-17.8,82.2
		c-8.3,26.9-19,53.1-32.8,77.9c-13.8,24.7-30.5,48-50.2,68.6c-9.8,10.3-20.3,20-31.5,28.9c-11.1,8.9-22.9,17-35.1,24.4
		c-24.4,14.7-50.6,26.3-77.6,34.9c-13.5,4.3-27.2,7.9-41,10.9l-10.4,2.1c-3.5,0.6-6.9,1.3-10.4,1.9c-6.9,1.2-13.8,2.3-20.8,3.3
		c-55.6,7.9-112.5,8.8-168.5,0.4c-28-4.2-55.7-10.9-82.5-20.2c-26.8-9.3-52.9-21.4-77.3-36.3c-24.4-14.9-47.1-32.7-67.3-53.1
		c-20.2-20.4-37.8-43.4-52.2-68.4c-14.3-24.9-25.4-51.7-33.2-79.3C57.9,564,53.5,535.6,52,507.1c-1.5-28.5,0-57.1,3.7-85.3
		c3.7-28.2,9.8-55.9,17.6-83.1c3.9-13.6,8.3-27,13-40.3c1.2-3.3,2.4-6.6,3.7-9.9c1.3-3.4,2.6-6.7,4-10c2.7-6.7,5.7-13.2,8.8-19.7
		c12.6-26,28.4-50.5,47.3-72.5c18.9-22,40.8-41.4,64.7-57.7c23.9-16.3,49.8-29.6,76.7-39.8c26.9-10.2,54.9-17.5,83.2-22.1
		c28.3-4.6,57-6.5,85.6-5.9c28.6,0.6,57.1,3.6,85.2,9.1c28.1,5.5,55.8,13.4,82.6,24c26.8,10.6,52.7,23.8,76.8,40.4
		c24,16.5,46.3,36.3,64.7,60c9.2,11.8,17.3,24.6,24,38.2c6.7,13.6,12.1,28,15.6,42.8c0.5,1.9,0.8,3.7,1.2,5.6
		c0.2,0.9,0.4,1.9,0.6,2.7l0.5,2.6l2,10.3l1.9,10.4l1.8,10.4c2.3,13.9,4.4,27.8,6.2,41.8c3.5,28,5.6,56.4,5.7,85
		c0.1,28.6-1.8,57.4-7.1,86.1c-5.2,28.6-13.7,57.1-26.6,83.9c-12.7,26.8-29.9,51.7-50.3,73.3c-10.2,10.8-21.2,20.8-32.7,30
		c-11.5,9.1-23.6,17.5-36,25.2c-24.9,15.2-51,27.8-77.6,38.2c-3.3,1.3-6.7,2.6-10,3.8c-3.4,1.2-6.6,2.5-10.1,3.7
		c-6.9,2.4-13.8,4.7-20.8,6.8c-14,4.1-28.2,7.6-42.6,10.2c-28.8,5.3-58.3,7.2-87.8,5.5c-29.4-1.8-58.8-7.3-86.9-16.7
		c-28.1-9.4-55-22.6-79.6-39.4c-24.6-16.8-46.8-37-65.8-59.9c-19-22.9-34.8-48.4-46.9-75.5c-12.1-27.1-20.7-55.6-25.8-84.6
		c-5.1-29-6.8-58.5-5.5-87.7c0.7-14.6,2-29.1,4-43.5c1-7.2,2.2-14.4,3.5-21.5c0.6-3.6,1.4-7.1,2.1-10.7c0.8-3.6,1.5-7,2.4-10.8
		c1.8-7.4,3.8-14.7,6.2-21.9c2.4-7.2,5-14.2,7.9-21.2c2.9-7,6-13.8,9.5-20.5c3.4-6.7,7.1-13.3,11-19.7c15.6-25.7,35-49,57.4-69.1
		c22.4-20.1,47.8-36.8,74.9-49.6c13.5-6.4,27.6-11.8,41.8-16.3c14.3-4.5,28.8-8,43.4-10.6c29.3-5.2,58.9-6.8,88.3-5.5
		c14.7,0.6,29.2,2,43.7,4l10.8,1.6l10.8,1.8l10.7,2.1c3.6,0.7,7.2,1.5,10.7,2.3c14.3,3.2,28.7,7.1,43,12.2
		c14.3,5.1,28.4,11.3,42.1,19.1c13.6,7.8,26.7,17.1,38.4,28c11.8,10.9,22.2,23.2,31.1,36.3c8.9,13.1,16.2,27,22.3,41.2
		c3,7.1,5.7,14.2,8.2,21.4c2.4,7.2,4.6,14.4,6.5,21.6c7.7,28.9,12,57.9,14.6,86.6c1.3,14.4,2.1,28.7,2.6,43l0.3,10.8
		c0,4.3,0,8.6-0.3,12.8c-0.5,8.4-1.6,16.5-3.2,24.4c-3.1,15.8-7.7,30.9-13.5,45.3c-5.8,14.4-12.7,28.2-20.6,41.4
		c-15.8,26.4-35.3,50.3-58.2,71c-22.8,20.7-49.1,38-77.6,50.6c-28.5,12.5-59.1,20.4-89.9,23.1c-15.4,1.4-30.8,1.6-46.1,0.8
		c-15.3-0.9-30.4-2.8-45.3-5.6c-3.8-0.7-7.2-1.3-11.7-2.4c-4.2-1-8.3-2.2-12.3-3.4c-8-2.5-15.6-5.6-23-8.9
		c-14.7-6.8-28.3-14.9-41.1-23.9c-25.4-18.2-47.7-40.2-66.1-65.3c-18.4-25.1-32.9-53.5-41.7-84.2c-2.2-7.7-4-15.4-5.4-23.3
		c-0.8-3.9-1.3-7.9-1.9-11.9c-0.5-4-1-8-1.2-12c-0.4-4-0.5-8-0.7-12c0-2,0-4-0.1-6l0-3l0.1-3c0.1-8,0.8-16,1.8-23.9
		c2-15.8,5.5-31.5,10.5-46.4c4.9-15,11.1-29.4,18.3-43.1c1.8-3.4,3.6-6.8,5.6-10.1l2.9-5l3-4.9c1-1.6,2-3.2,3.1-4.9
		c1.1-1.7,2.2-3.4,3.4-5.1c2.3-3.4,4.7-6.6,7.2-9.9c10-12.9,21.6-24.6,34.4-34.8c12.8-10.2,26.7-18.8,41.2-25.7
		c14.6-6.9,29.7-12.2,45.1-16c30.8-7.5,62.5-9.1,93.5-5.5c31,3.7,61.5,12.5,89.8,27.6c14.1,7.6,27.7,16.7,40.1,27.9
		c12.4,11.2,23.5,24.4,32.1,39.7c2.1,3.8,4.1,7.8,5.9,11.8c0.4,1,0.9,2,1.3,3.1c0.4,1,0.9,2.1,1.2,3c0.7,1.8,1.4,3.6,2,5.4
		c2.6,7.3,5,14.6,7,22c4.1,14.8,7,29.9,8.7,45.2c1.7,15.3,2.2,30.8,1.2,46.3c-1,15.6-3.4,31.2-7.6,46.7c-4.3,15.4-10.4,30.7-19,45
		c-8.5,14.3-19.5,27.5-32.7,38.4c-6.6,5.4-13.6,10.3-21,14.4c-7.4,4.2-15.1,7.6-22.9,10.4l-2.9,1l-3,0.9c-2,0.6-3.9,1.2-5.9,1.7
		c-2,0.6-4,1-6,1.5c-2.1,0.5-3.8,0.9-5.7,1.3c-7.3,1.6-14.7,2.8-22.2,3.8c-14.9,2-30.1,3-45.6,2.5c-15.4-0.5-31.1-2.5-46.6-6.8
		c-15.5-4.2-30.9-10.9-44.9-20.6c-13.9-9.7-26-22.5-34.7-37c-8.8-14.5-14.4-30.2-17.5-45.8c-3.1-15.6-4-31.1-3.6-46.2
		c0.5-15.8,3-31.3,7.4-46.2c4.4-15,10.8-29.5,19.5-42.9c8.7-13.4,20-25.9,34-35.3c7-4.7,14.6-8.7,22.6-11.5c4-1.4,8.1-2.7,12.2-3.6
		c2.1-0.5,4.2-0.8,6.2-1.2c2.1-0.3,4.2-0.6,6.3-0.8c8.4-0.8,16.7-0.6,24.7,0.4c8.1,1,15.8,2.8,23.3,5.1c7.5,2.3,14.6,5.1,21.5,8.4
		c3.4,1.6,6.8,3.3,10.1,5.1c1.6,0.8,3.4,1.9,5.1,2.9c1.7,1,3.4,2.1,5.1,3.2c13.3,8.8,24.9,19.9,34.1,33c9.1,13,15.8,28.1,18.4,44.3
		c1.3,8.1,1.6,16.4,0.7,24.6c-0.9,8.2-2.9,16.3-6,23.9c-3.1,7.6-7.1,14.7-11.9,21c-2.4,3.2-4.9,6.2-7.6,9.1
		c-2.7,2.9-5.5,5.5-8.4,8.1c-2.9,2.6-5.8,4.9-8.9,7.1c-3,2.3-6.2,4.4-9.5,6.4c-6.5,4-13.5,7.5-21,10.1c-7.4,2.6-15.3,4.3-23.4,4.8
		c-8.1,0.5-16.3-0.3-24.1-2.6c-7.8-2.2-15.3-5.8-21.8-10.4c-6.5-4.6-12.3-10.2-17-16.4c-4.8-6.2-8.6-12.9-11.6-19.9
		c-1.5-3.5-2.8-7.1-3.9-10.7c-1.3-4-2-8.3-2.2-12.4c-0.4-8.3,1.2-16.2,3.8-23.5c2.6-7.3,6.2-14,10.6-20.2
		c4.4-6.2,9.5-11.8,15.4-16.6c5.9-4.8,12.5-8.9,20.1-11.5c3.8-1.3,7.8-2.1,11.9-2.4c4.1-0.2,8.3,0.2,12.4,1.3
		c4,1.1,7.8,2.9,11.2,5.2c3.4,2.3,6.3,5.1,8.8,8c5,5.9,8.6,12.6,11.3,19.4c1.4,3.4,2.5,6.8,3.5,10.3c1,3.5,1.9,7.1,2.5,10.7
		c0.6,3.7,0.9,7.5,0.6,11.4c-0.1,2-0.5,3.9-0.9,5.9c-0.5,2-1.2,3.9-2.2,5.8c-1.9,3.8-5,7-8.5,9.2c-3.5,2.2-7.3,3.5-11,4.3
		c-7.5,1.6-14.8,1.3-21.9,0.4c-3.6-0.4-7.1-1.1-10.5-1.8c-3.5-0.8-6.8-1.6-10.3-2.7c-1.7-0.5-2.6-2.3-2-4c0.5-1.6,2.2-2.5,3.8-2.1
		l0.1,0c3.1,0.8,6.5,1.6,9.8,2.1c3.3,0.6,6.6,1,10,1.3c6.6,0.5,13.3,0.4,19.3-1.2c3-0.8,5.8-1.9,8.1-3.5c2.3-1.6,4-3.6,5.2-6.1
		c2.3-4.9,2.1-11.2,0.9-17.4c-0.6-3.1-1.5-6.2-2.6-9.3c-1.1-3.1-2.3-6.2-3.6-9.1c-2.7-5.9-6-11.4-10.2-15.9c-4.1-4.4-9-7.6-14.4-8.8
		c-5.3-1.2-11-0.5-16.5,1.6c-5.5,2.1-10.7,5.6-15.3,9.7c-4.6,4.1-8.7,9-12.1,14.2c-3.4,5.3-6.1,10.9-7.9,16.7
		c-1.8,5.8-2.6,11.7-2.1,17.3c0.2,2.8,0.8,5.4,1.7,7.9c1.1,2.9,2.3,5.8,3.7,8.6c2.8,5.5,6.2,10.7,10.1,15.3
		c7.9,9.1,18.2,15.6,29.3,18c5.5,1.2,11.3,1.5,17,0.8c5.7-0.7,11.4-2.2,16.8-4.5c10.9-4.5,21.2-11.9,30.2-20.5
		c8.8-8.5,15.5-18.4,19.2-29c3.7-10.6,4.3-22,1.9-33c-2.3-11-7.6-21.6-14.7-30.9c-7.1-9.2-16.2-17.1-26.3-23.1
		c-1.3-0.7-2.5-1.5-3.8-2.1c-1.3-0.7-2.5-1.3-4-2c-2.8-1.4-5.7-2.7-8.6-3.9c-5.7-2.4-11.5-4.4-17.3-6c-11.6-3.1-23.1-4.2-33.9-2.7
		c-10.8,1.5-20.7,5.5-29.3,11.9c-8.7,6.4-16.1,15-22.1,24.9c-11.9,19.9-18,44.7-17.9,68.3c0.1,12.5,1.3,24.7,4,36.1
		c2.7,11.4,7,21.9,12.9,30.9c5.9,9,13.4,16.4,22.4,22.3c9,5.8,19.3,10,30.5,12.7c11.2,2.7,23.2,3.9,35.3,4c12.2,0,24.6-1.1,37-3.1
		c6.2-1,12.4-2.3,18.5-3.7c1.5-0.4,3.1-0.7,4.4-1.1c1.4-0.4,2.7-0.7,4-1.2c1.3-0.4,2.7-0.8,4-1.3l2-0.7l1.9-0.8
		c5.1-2.1,10-4.5,14.5-7.3c4.5-2.8,8.8-6,12.8-9.5c4-3.5,7.6-7.4,10.9-11.6c3.3-4.2,6.3-8.7,9-13.5c5.3-9.6,9.3-20.3,12-31.6
		c2.7-11.3,4.2-23.1,4.6-35.1c0.4-12-0.3-24.2-2-36.3c-1.7-12.1-4.3-24.1-7.9-35.9c-1.8-5.9-3.8-11.6-6-17.3
		c-0.5-1.4-1.1-2.8-1.7-4.2c-0.3-0.8-0.5-1.2-0.8-1.8c-0.2-0.6-0.5-1.1-0.8-1.7c-1-2.3-2.2-4.5-3.5-6.7
		c-10.1-17.5-27.6-32.4-48.2-43c-20.6-10.7-44.1-17.3-68-19.9c-23.9-2.5-48.2-1.1-71,4.8c-22.8,5.8-44,16-61.5,30.2
		c-8.8,7.1-16.7,15.2-23.6,24.1c-1.7,2.2-3.4,4.5-5,6.9c-0.8,1.2-1.6,2.4-2.3,3.5c-0.8,1.2-1.6,2.6-2.4,3.9l-2.4,3.9l-2.3,4
		c-1.6,2.6-2.9,5.3-4.4,8c-5.6,10.8-10.2,21.9-13.8,33.2c-1.8,5.6-3.3,11.3-4.6,17.1c-0.6,2.9-1.2,5.7-1.7,8.6
		c-0.5,2.9-0.9,5.8-1.3,8.6c-2.8,23.1-0.9,46.5,5.7,69c6.4,22.5,17.4,44.1,31.6,63.5c14.2,19.4,31.7,36.8,51.1,50.8
		c9.7,7,19.9,13.1,30.3,17.9c5.2,2.4,10.4,4.5,15.6,6.1c2.6,0.8,5.1,1.6,7.6,2.2c2.3,0.6,5.6,1.2,8.6,1.8c12.3,2.4,24.6,4,36.9,4.8
		c12.3,0.7,24.5,0.6,36.6-0.4c24.2-2,47.9-7.9,70-17.4c22.1-9.6,42.7-22.8,61-39c18.3-16.2,34.2-35.3,47-56.2
		c6.4-10.4,12-21.4,16.7-32.5c4.7-11.1,8.3-22.6,10.6-33.9c1.2-5.6,2-11.2,2.4-16.6c0.2-2.7,0.3-5.3,0.3-7.9l-0.1-9.9
		c-0.2-13.3-0.7-26.6-1.6-39.8c-1.8-26.3-5.2-52.2-11.2-76.8c-1.5-6.1-3.2-12.2-5.1-18.1c-1.9-5.9-4-11.7-6.2-17.4
		c-4.6-11.3-10-22.1-16.4-32c-6.4-9.9-13.8-18.9-22.1-26.9c-8.4-8-17.8-15.1-28-21.2c-20.5-12.3-44.3-20.7-69.5-26.8
		c-3.1-0.8-6.3-1.5-9.5-2.2l-9.6-2l-9.7-1.8l-9.7-1.6c-12.9-1.9-25.8-3.3-38.8-4c-25.9-1.4-51.7-0.3-76.9,3.9
		c-25.2,4.2-49.6,11.5-72.6,22.2c-22.9,10.5-44.3,24.4-63.2,41c-18.9,16.6-35.4,36-48.6,57.5c-3.3,5.3-6.4,10.8-9.3,16.4
		c-2.9,5.6-5.6,11.3-8.1,17c-2.5,5.8-4.7,11.6-6.7,17.5c-2,5.9-3.7,11.9-5.2,18c-0.8,2.9-1.5,6.3-2.2,9.4c-0.7,3.2-1.4,6.4-2,9.6
		c-1.3,6.4-2.4,12.9-3.3,19.3c-1.9,12.9-3.2,25.9-3.9,38.9c-1.3,26,0,52,4.3,77.4c4.3,25.4,11.6,50.2,21.9,73.6
		c10.3,23.4,23.7,45.4,39.8,65.1c16.1,19.7,35,37.2,56,51.7c20.9,14.5,44,26.1,68.2,34.4c24.2,8.3,49.6,13.3,75.3,15
		c25.7,1.7,51.7,0.2,77.3-4.2c12.8-2.2,25.5-5.2,38-8.8c6.3-1.8,12.5-3.8,18.7-5.9c3.1-1,6.3-2.2,9.4-3.3c3.1-1.1,6.2-2.3,9.4-3.5
		c24.8-9.5,48.8-20.8,71.2-34.3c11.1-6.8,21.9-14.1,32-22c10.1-8,19.7-16.5,28.6-25.7c8.8-9.2,17-19,24.3-29.5
		c3.7-5.2,7.1-10.6,10.3-16c1.6-2.8,3.2-5.5,4.7-8.3l2.2-4.2l2.1-4.3c11.2-22.9,19-47.8,23.9-73.4c4.9-25.7,7-52.1,7.2-78.8
		c0.1-26.7-1.6-53.5-4.7-80.3c-1.5-13.4-3.4-26.8-5.6-40.2l-1.6-10l-1.8-10l-1.9-10l-0.5-2.5c-0.2-0.9-0.3-1.6-0.5-2.4
		c-0.3-1.5-0.6-3-1-4.5c-5.5-24.1-16.8-46.8-32.2-67c-15.4-20.2-34.6-37.8-55.9-52.7c-21.3-15-44.8-27.3-69.3-37.2
		c-24.5-10-50.1-17.5-76.1-22.9c-26.1-5.3-52.6-8.4-79.3-9.2c-53.2-1.5-106.9,6-156.5,24.4c-24.8,9.2-48.5,21-70.4,35.7
		c-21.9,14.6-41.8,32-59.1,51.7c-17.3,19.7-31.9,41.8-43.7,65.5c-2.9,5.9-5.7,11.9-8.2,18c-1.3,3-2.5,6.1-3.7,9.2
		c-1.2,3.1-2.4,6.3-3.6,9.5c-4.7,12.7-8.9,25.5-12.8,38.4c-7.7,25.8-13.7,52.2-17.4,78.7c-3.7,26.6-5.3,53.4-4.1,80
		c1.2,26.6,5,53.1,12,78.8c6.9,25.6,17,50.4,30,73.4c13,23.1,29,44.4,47.6,63.4c18.5,19,39.4,35.7,62.1,49.8
		c22.6,14.1,46.9,25.6,72.2,34.6c25.3,9,51.5,15.5,78.1,19.8c53.3,8.5,108,8.2,161.8,1c6.7-0.9,13.4-1.9,20.1-3
		c3.4-0.5,6.7-1.1,10-1.7l9.9-1.9c13.2-2.7,26.3-5.9,39.1-9.9c25.7-7.8,50.5-18.4,73.6-31.9c11.5-6.8,22.7-14.2,33.2-22.4
		c10.6-8.2,20.5-17.1,29.9-26.7c18.8-19.1,34.9-40.8,48.3-64.1c13.4-23.4,24.1-48.3,32.4-74.1c8.3-25.8,14.3-52.4,18.4-79.4
		c4.1-27,6.3-54.2,7.1-81.6c0.4-13.7,0.4-27.4,0-41.1l-0.3-10.3l-0.4-10.3c-0.3-6.8-0.7-13.7-1.3-20.4c-2.6-26.9-8.7-53.5-18.5-78.6
		c-4.8-12.6-10.7-24.8-17.1-36.7c-6.6-11.8-13.8-23.3-21.9-34.2c-8-11-16.7-21.4-25.9-31.3c-9.3-9.9-19-19.4-29.3-28.3
		c-5.1-4.5-10.4-8.8-15.7-13c-5.4-4.2-10.8-8.3-16.4-12.2c-11.1-7.9-22.6-15.2-34.3-22.1c-11.8-6.8-23.9-13.2-36.2-19
		c-12.3-5.8-24.9-11.2-37.7-16c-25.5-9.7-51.8-17.3-78.5-23C478.8,22,423.6,18.6,369.4,24.5c-13.6,1.4-27,3.6-40.4,6.2
		c-13.3,2.7-26.6,6-39.6,10c-26,8-51.2,18.5-74.8,31.9c-23.6,13.4-45.6,29.6-65,48.5c-9.8,9.4-18.8,19.5-27.2,30.1
		c-8.4,10.6-16.1,21.9-23,33.5c-1.7,2.9-3.4,5.8-5.1,8.8c-1.6,3-3.3,6-5,9c-3.3,6-6.4,12.1-9.5,18.2c-6.2,12.2-12,24.6-17.5,37.2
		c-10.9,25.1-20.4,50.8-28,77.1c-3.8,13.1-7.1,26.4-9.9,39.8c-2.8,13.4-5,26.9-6.7,40.4c-1.7,13.5-2.8,27.2-3.3,40.8
		c-0.5,13.6-0.4,27.3,0.4,40.9c1.5,27.2,5.6,54.3,12.5,80.7c6.8,26.4,16.4,52.1,28.5,76.5c24.2,48.9,58.7,92.6,100.2,128
		c41.5,35.4,90,62.7,142,79.4c26,8.3,52.8,14.1,79.9,16.8c6.8,0.7,13.6,1.2,20.4,1.5c6.9,0.3,13.7,0.5,20.6,0.7
		c13.7,0.3,27.5,0.4,41.2,0.2c27.5-0.4,55-1.9,82.2-4.9c27.3-3,54.4-7.6,81-14.1c26.6-6.6,52.7-15.2,77.5-26.5
		c24.9-11.3,48.5-25.3,69.9-42.2c21.4-16.8,40.5-36.6,56.7-58.5c8.1-11,15.5-22.5,22.1-34.4c6.7-11.9,12.6-24.3,17.9-36.9
		c10.5-25.2,18.5-51.6,24.3-78.4c5.9-26.8,9.7-54,12.2-81.4c4.8-54.8,4.1-110,0.5-165c-0.8-13.7-2.5-27.2-5.2-40.6
		c-2.8-13.4-6.4-26.6-10.9-39.5c-9-25.8-21.3-50.5-36.2-73.4c-14.9-23-32.4-44.3-51.8-63.5c-9.7-9.7-20-18.8-30.6-27.4
		c-10.7-8.6-21.7-16.7-33.1-24.3C690.9,39.1,639.7,17.3,586.7,3c-1.7-0.5-2.7-2.2-2.2-3.9S586.7-3.5,588.3-3z"/>
</g>
<g>
</g>
<g>
</g>
<g>
</g>
<g>
</g>
<g>
</g>
<g>
</g>
</svg>
